<svg width="282" height="154" viewBox="0 0 282 154" fill="none" xmlns="http://www.w3.org/2000/svg">
<path d="M105.803 38.1978V40.234C104.242 40.9806 102.613 42.4399 100.916 44.6118C99.219 46.7838 97.6919 50.0756 96.3344 54.4874L79.2303 110.279C78.4158 110.211 77.5334 110.177 76.5832 110.177C75.7009 110.11 74.7846 110.076 73.8343 110.076C72.952 110.076 72.0357 110.11 71.0855 110.177C70.2031 110.177 69.3547 110.211 68.5402 110.279L47.1601 45.0191C46.6171 43.2543 45.9044 42.0326 45.0221 41.3539C44.1397 40.6752 43.1216 40.3018 41.9677 40.234V38.1978C44.2754 38.2656 46.9904 38.3335 50.1126 38.4014C53.2347 38.4693 56.3909 38.5032 59.5809 38.5032C62.771 38.5032 65.7574 38.4693 68.5402 38.4014C71.3909 38.3335 73.6647 38.2656 75.3615 38.1978V40.234C73.2574 40.3018 71.6285 40.5733 70.4746 41.0485C69.3208 41.4557 68.642 42.2702 68.4384 43.4919C68.3027 44.6457 68.642 46.4105 69.4565 48.786L83.4045 91.1391L80.452 97.3495L90.7348 64.4648C92.6353 58.4241 93.5516 53.6729 93.4837 50.2114C93.4158 46.682 92.6014 44.1706 91.0403 42.6774C89.4792 41.1163 87.3412 40.3018 84.6262 40.234V38.1978C87.2054 38.2656 89.4792 38.3335 91.4475 38.4014C93.4837 38.4693 95.6557 38.5032 97.9634 38.5032C99.3208 38.5032 100.712 38.4693 102.138 38.4014C103.563 38.3335 104.785 38.2656 105.803 38.1978ZM32.194 38.1978V40.234C31.0401 40.4376 30.2596 41.0485 29.8523 42.0666C29.513 43.0168 29.4112 44.1367 29.5469 45.4263C29.7505 46.648 30.022 47.7679 30.3614 48.786L45.7347 92.0554L42.884 96.4332L55.1013 63.3449L56.5266 66.2974L40.9496 110.279C40.1352 110.211 39.2528 110.177 38.3026 110.177C37.4202 110.11 36.5039 110.076 35.5537 110.076C34.6714 110.076 33.7551 110.11 32.8048 110.177C31.9225 110.177 31.0741 110.211 30.2596 110.279L6.63962 46.7498C5.75726 44.3743 4.77309 42.7114 3.68712 41.7611C2.60114 40.8109 1.58304 40.3018 0.632812 40.234V38.1978C3.07626 38.2656 5.92694 38.3335 9.18487 38.4014C12.5107 38.4693 15.6668 38.5032 18.6532 38.5032C21.6396 38.5032 24.2867 38.4693 26.5944 38.4014C28.9021 38.3335 30.7686 38.2656 32.194 38.1978ZM208.607 38.1978V40.234C207.046 40.9806 205.417 42.4399 203.72 44.6118C202.024 46.7838 200.497 50.0756 199.139 54.4874L182.035 110.279C181.22 110.211 180.338 110.177 179.388 110.177C178.506 110.11 177.589 110.076 176.639 110.076C175.757 110.076 174.84 110.11 173.89 110.177C173.008 110.177 172.159 110.211 171.345 110.279L149.965 45.0191C149.422 43.2543 148.709 42.0326 147.827 41.3539C146.944 40.6752 145.926 40.3018 144.772 40.234V38.1978C147.08 38.2656 149.795 38.3335 152.917 38.4014C156.039 38.4693 159.196 38.5032 162.386 38.5032C165.576 38.5032 168.562 38.4693 171.345 38.4014C174.196 38.3335 176.469 38.2656 178.166 38.1978V40.234C176.062 40.3018 174.433 40.5733 173.279 41.0485C172.125 41.4557 171.447 42.2702 171.243 43.4919C171.107 44.6457 171.447 46.4105 172.261 48.786L186.209 91.1391L183.257 97.3495L193.539 64.4648C195.44 58.4241 196.356 53.6729 196.288 50.2114C196.22 46.682 195.406 44.1706 193.845 42.6774C192.284 41.1163 190.146 40.3018 187.431 40.234V38.1978C190.01 38.2656 192.284 38.3335 194.252 38.4014C196.288 38.4693 198.46 38.5032 200.768 38.5032C202.125 38.5032 203.517 38.4693 204.942 38.4014C206.368 38.3335 207.589 38.2656 208.607 38.1978ZM134.999 38.1978V40.234C133.845 40.4376 133.064 41.0485 132.657 42.0666C132.318 43.0168 132.216 44.1367 132.352 45.4263C132.555 46.648 132.827 47.7679 133.166 48.786L148.539 92.0554L145.689 96.4332L157.906 63.3449L159.331 66.2974L143.754 110.279C142.94 110.211 142.057 110.177 141.107 110.177C140.225 110.11 139.309 110.076 138.358 110.076C137.476 110.076 136.56 110.11 135.609 110.177C134.727 110.177 133.879 110.211 133.064 110.279L109.444 46.7498C108.562 44.3743 107.578 42.7114 106.492 41.7611C105.406 40.8109 104.388 40.3018 103.437 40.234V38.1978C105.881 38.2656 108.732 38.3335 111.99 38.4014C115.315 38.4693 118.471 38.5032 121.458 38.5032C124.444 38.5032 127.091 38.4693 129.399 38.4014C131.707 38.3335 133.573 38.2656 134.999 38.1978ZM277.102 38.1978V40.234C275.066 40.6412 273.505 41.3539 272.419 42.372C271.4 43.3901 270.722 44.9851 270.382 47.1571C270.043 49.2611 269.873 52.2476 269.873 56.1164V80.6525C269.873 84.8607 269.568 88.8314 268.957 92.5644C268.414 96.2975 267.328 99.5215 265.699 102.236C263.934 105.155 261.287 107.463 257.758 109.159C254.296 110.856 249.647 111.705 243.81 111.705C240.688 111.705 237.396 111.365 233.934 110.687C230.473 110.008 227.384 108.718 224.67 106.818C222.362 105.121 220.597 103.051 219.375 100.607C218.154 98.164 217.339 95.3133 216.932 92.0554C216.525 88.7974 216.321 85.0983 216.321 80.9581V48.9896C216.321 46.4783 216.151 44.6457 215.812 43.4919C215.473 42.2702 214.794 41.4557 213.776 41.0485C212.758 40.5733 211.197 40.3018 209.093 40.234V38.1978C211.061 38.2656 213.64 38.3335 216.83 38.4014C220.088 38.4693 223.482 38.5032 227.011 38.5032C230.541 38.5032 233.934 38.4693 237.192 38.4014C240.45 38.3335 243.131 38.2656 245.235 38.1978V40.234C242.928 40.3018 241.163 40.5733 239.941 41.0485C238.787 41.4557 238.007 42.2702 237.599 43.4919C237.192 44.6457 236.989 46.4783 236.989 48.9896V90.5282C236.989 93.854 237.26 96.6708 237.803 98.9785C238.346 101.218 239.127 103.017 240.145 104.374C241.231 105.732 242.554 106.716 244.115 107.327C245.744 107.87 247.611 108.141 249.715 108.141C254.262 108.141 257.826 107.055 260.405 104.883C262.984 102.644 264.817 99.5554 265.903 95.6187C266.989 91.6142 267.532 86.9988 267.532 81.7725V58.1526C267.532 53.605 267.328 50.1435 266.921 47.7679C266.581 45.3245 265.699 43.5598 264.274 42.4738C262.848 41.3878 260.507 40.6412 257.249 40.234V38.1978C258.606 38.2656 260.371 38.3335 262.543 38.4014C264.715 38.4693 266.751 38.5032 268.652 38.5032C270.213 38.5032 271.74 38.4693 273.233 38.4014C274.794 38.3335 276.084 38.2656 277.102 38.1978Z" fill="white"/>
<path d="M2.16016 142.732H281.756" stroke="#FF8C18" stroke-width="21.5074"/>
</svg>
