<svg width="659" height="293" viewBox="0 0 659 293" fill="none" xmlns="http://www.w3.org/2000/svg">
<path d="M105.541 38.1683V40.2045C103.98 40.9511 102.351 42.4104 100.654 44.5823C98.9573 46.7543 97.4302 50.0461 96.0727 54.4579L78.9686 110.25C78.1541 110.182 77.2717 110.148 76.3215 110.148C75.4391 110.08 74.5229 110.046 73.5726 110.046C72.6903 110.046 71.774 110.08 70.8237 110.148C69.9414 110.148 69.093 110.182 68.2785 110.25L46.8984 44.9896C46.3554 43.2248 45.6427 42.0031 44.7603 41.3244C43.878 40.6457 42.8599 40.2724 41.706 40.2045V38.1683C44.0137 38.2361 46.7287 38.304 49.8508 38.3719C52.973 38.4398 56.1291 38.4737 59.3192 38.4737C62.5092 38.4737 65.4957 38.4398 68.2785 38.3719C71.1292 38.304 73.4029 38.2361 75.0998 38.1683V40.2045C72.9957 40.2724 71.3667 40.5438 70.2129 41.019C69.059 41.4262 68.3803 42.2407 68.1767 43.4624C68.0409 44.6163 68.3803 46.381 69.1948 48.7565L83.1428 91.1096L80.1903 97.32L90.4731 64.4353C92.3736 58.3946 93.2899 53.6434 93.222 50.1819C93.1541 46.6525 92.3396 44.1411 90.7785 42.6479C89.2175 41.0868 87.0794 40.2724 84.3645 40.2045V38.1683C86.9437 38.2361 89.2175 38.304 91.1858 38.3719C93.222 38.4398 95.3939 38.4737 97.7016 38.4737C99.0591 38.4737 100.451 38.4398 101.876 38.3719C103.301 38.304 104.523 38.2361 105.541 38.1683ZM31.9322 38.1683V40.2045C30.7784 40.4081 29.9979 41.019 29.5906 42.0371C29.2512 42.9873 29.1494 44.1072 29.2852 45.3968C29.4888 46.6185 29.7603 47.7384 30.0997 48.7565L45.473 92.0259L42.6223 96.4037L54.8395 63.3154L56.2649 66.2679L40.6879 110.25C39.8734 110.182 38.9911 110.148 38.0409 110.148C37.1585 110.08 36.2422 110.046 35.292 110.046C34.4096 110.046 33.4933 110.08 32.5431 110.148C31.6608 110.148 30.8123 110.182 29.9979 110.25L6.3779 46.7203C5.49554 44.3448 4.51138 42.6819 3.4254 41.7316C2.33943 40.7814 1.32132 40.2724 0.371094 40.2045V38.1683C2.81454 38.2361 5.66523 38.304 8.92315 38.3719C12.2489 38.4398 15.4051 38.4737 18.3915 38.4737C21.3779 38.4737 24.025 38.4398 26.3327 38.3719C28.6404 38.304 30.5069 38.2361 31.9322 38.1683ZM127.481 30.6343V63.6208C129.109 60.9059 131.281 58.9715 133.996 57.8176C136.779 56.5959 140.003 55.9851 143.668 55.9851C146.791 55.9851 149.234 56.3923 150.999 57.2068C152.831 57.9534 154.223 58.9036 155.173 60.0575C156.191 61.2792 156.938 62.9082 157.413 64.9444C157.888 66.9806 158.125 69.7294 158.125 73.191V100.782C158.125 103.632 158.533 105.567 159.347 106.585C160.229 107.603 161.723 108.112 163.827 108.112V110.25C162.469 110.182 160.399 110.114 157.616 110.046C154.901 109.911 152.22 109.843 149.573 109.843C146.723 109.843 143.94 109.911 141.225 110.046C138.51 110.114 136.474 110.182 135.116 110.25V108.112C136.881 108.112 138.103 107.603 138.781 106.585C139.46 105.567 139.8 103.632 139.8 100.782V67.6932C139.8 66.2679 139.63 65.0801 139.291 64.1299C138.951 63.1796 138.408 62.467 137.662 61.9919C136.983 61.5167 136.033 61.2792 134.811 61.2792C133.589 61.2792 132.401 61.5846 131.248 62.1955C130.162 62.8063 129.245 63.6887 128.499 64.8425C127.82 65.9285 127.481 67.1842 127.481 68.6095V100.782C127.481 103.632 127.82 105.567 128.499 106.585C129.245 107.603 130.467 108.112 132.164 108.112V110.25C130.874 110.182 128.974 110.114 126.462 110.046C123.951 109.911 121.372 109.843 118.725 109.843C115.874 109.843 112.99 109.911 110.071 110.046C107.152 110.114 104.947 110.182 103.453 110.25V108.112C105.557 108.112 107.017 107.603 107.831 106.585C108.714 105.567 109.155 103.632 109.155 100.782V42.8515C109.155 39.7972 108.747 37.5574 107.933 36.1321C107.118 34.6388 105.625 33.8922 103.453 33.8922V31.7542C105.625 31.9579 107.729 32.0597 109.766 32.0597C113.159 32.0597 116.315 31.9579 119.234 31.7542C122.22 31.4827 124.969 31.1094 127.481 30.6343ZM194.275 55.9851C200.248 55.9851 204.931 57.7498 208.325 61.2792C211.787 64.7407 213.517 70.5779 213.517 78.7905H181.651L181.447 76.8562H198.653C198.721 73.5304 198.585 70.476 198.246 67.6932C197.906 64.8425 197.363 62.5688 196.617 60.8719C195.87 59.1751 194.852 58.3267 193.563 58.3267C191.73 58.3267 190.237 59.786 189.083 62.7045C187.929 65.5552 187.182 70.476 186.843 77.467L187.25 78.2815C187.182 78.9602 187.148 79.639 187.148 80.3177C187.148 80.9964 187.148 81.7091 187.148 82.4557C187.148 87.2069 187.725 90.906 188.879 93.553C190.101 96.2001 191.594 98.0327 193.359 99.0508C195.191 100.069 197.024 100.578 198.857 100.578C199.807 100.578 200.927 100.442 202.216 100.171C203.574 99.8992 205.033 99.2883 206.594 98.3381C208.155 97.32 209.682 95.7929 211.176 93.7566L212.906 94.3675C212.092 97.0824 210.768 99.7974 208.936 102.512C207.171 105.159 204.863 107.365 202.013 109.13C199.162 110.827 195.701 111.675 191.628 111.675C187.284 111.675 183.314 110.793 179.716 109.028C176.187 107.264 173.37 104.345 171.266 100.273C169.162 96.2001 168.11 90.7363 168.11 83.8811C168.11 77.3652 169.264 72.0711 171.572 67.9987C173.879 63.8584 177.001 60.838 180.938 58.9376C184.943 56.9692 189.388 55.9851 194.275 55.9851ZM257.516 55.9851C260.638 55.9851 263.082 56.3923 264.846 57.2068C266.679 57.9534 268.07 58.9036 269.021 60.0575C270.039 61.2792 270.785 62.9082 271.26 64.9444C271.736 66.9806 271.973 69.7294 271.973 73.191V100.782C271.973 103.632 272.38 105.567 273.195 106.585C274.077 107.603 275.57 108.112 277.674 108.112V110.25C276.317 110.182 274.247 110.114 271.464 110.046C268.749 109.911 266.068 109.843 263.421 109.843C260.57 109.843 257.788 109.911 255.073 110.046C252.358 110.114 250.321 110.182 248.964 110.25V108.112C250.729 108.112 251.95 107.603 252.629 106.585C253.308 105.567 253.647 103.632 253.647 100.782V67.6932C253.647 66.2679 253.478 65.0801 253.138 64.1299C252.799 63.1796 252.256 62.467 251.509 61.9919C250.83 61.5167 249.88 61.2792 248.659 61.2792C247.437 61.2792 246.249 61.5846 245.095 62.1955C244.009 62.8063 243.093 63.6887 242.346 64.8425C241.668 65.9285 241.328 67.1842 241.328 68.6095V100.782C241.328 103.632 241.668 105.567 242.346 106.585C243.093 107.603 244.315 108.112 246.011 108.112V110.25C244.722 110.182 242.821 110.114 240.31 110.046C237.799 109.911 235.22 109.843 232.573 109.843C229.722 109.843 226.837 109.911 223.919 110.046C221 110.114 218.794 110.182 217.301 110.25V108.112C219.405 108.112 220.864 107.603 221.679 106.585C222.561 105.567 223.002 103.632 223.002 100.782V68.5077C223.002 65.4534 222.595 63.2136 221.781 61.7882C220.966 60.295 219.473 59.5484 217.301 59.5484V57.4104C219.473 57.614 221.577 57.7158 223.613 57.7158C227.007 57.7158 230.163 57.614 233.082 57.4104C236.068 57.1389 238.817 56.7656 241.328 56.2905V63.6208C242.957 60.9059 245.129 58.9715 247.844 57.8176C250.627 56.5959 253.851 55.9851 257.516 55.9851ZM401.029 38.1683V40.2045C399.468 40.9511 397.839 42.4104 396.143 44.5823C394.446 46.7543 392.919 50.0461 391.561 54.4579L374.457 110.25C373.643 110.182 372.76 110.148 371.81 110.148C370.928 110.08 370.011 110.046 369.061 110.046C368.179 110.046 367.262 110.08 366.312 110.148C365.43 110.148 364.581 110.182 363.767 110.25L342.387 44.9896C341.844 43.2248 341.131 42.0031 340.249 41.3244C339.366 40.6457 338.348 40.2724 337.194 40.2045V38.1683C339.502 38.2361 342.217 38.304 345.339 38.3719C348.461 38.4398 351.618 38.4737 354.808 38.4737C357.998 38.4737 360.984 38.4398 363.767 38.3719C366.618 38.304 368.891 38.2361 370.588 38.1683V40.2045C368.484 40.2724 366.855 40.5438 365.701 41.019C364.547 41.4262 363.869 42.2407 363.665 43.4624C363.529 44.6163 363.869 46.381 364.683 48.7565L378.631 91.1096L375.679 97.32L385.962 64.4353C387.862 58.3946 388.778 53.6434 388.71 50.1819C388.643 46.6525 387.828 44.1411 386.267 42.6479C384.706 41.0868 382.568 40.2724 379.853 40.2045V38.1683C382.432 38.2361 384.706 38.304 386.674 38.3719C388.71 38.4398 390.882 38.4737 393.19 38.4737C394.548 38.4737 395.939 38.4398 397.364 38.3719C398.79 38.304 400.011 38.2361 401.029 38.1683ZM327.421 38.1683V40.2045C326.267 40.4081 325.486 41.019 325.079 42.0371C324.74 42.9873 324.638 44.1072 324.774 45.3968C324.977 46.6185 325.249 47.7384 325.588 48.7565L340.961 92.0259L338.111 96.4037L350.328 63.3154L351.753 66.2679L336.176 110.25C335.362 110.182 334.48 110.148 333.529 110.148C332.647 110.08 331.731 110.046 330.78 110.046C329.898 110.046 328.982 110.08 328.032 110.148C327.149 110.148 326.301 110.182 325.486 110.25L301.866 46.7203C300.984 44.3448 300 42.6819 298.914 41.7316C297.828 40.7814 296.81 40.2724 295.86 40.2045V38.1683C298.303 38.2361 301.154 38.304 304.412 38.3719C307.737 38.4398 310.893 38.4737 313.88 38.4737C316.866 38.4737 319.513 38.4398 321.821 38.3719C324.129 38.304 325.995 38.2361 327.421 38.1683ZM422.354 55.9851C427.648 55.9851 432.229 56.9013 436.098 58.7339C440.035 60.4986 443.089 63.4172 445.261 67.4896C447.433 71.562 448.519 77.0258 448.519 83.8811C448.519 90.7363 447.433 96.2001 445.261 100.273C443.089 104.345 440.035 107.264 436.098 109.028C432.229 110.793 427.648 111.675 422.354 111.675C417.128 111.675 412.546 110.793 408.61 109.028C404.673 107.264 401.619 104.345 399.447 100.273C397.275 96.2001 396.189 90.7363 396.189 83.8811C396.189 77.0258 397.275 71.562 399.447 67.4896C401.619 63.4172 404.673 60.4986 408.61 58.7339C412.546 56.9013 417.128 55.9851 422.354 55.9851ZM422.354 58.0213C420.318 58.0213 418.621 60.0575 417.263 64.1299C415.906 68.2023 415.227 74.786 415.227 83.8811C415.227 92.9761 415.906 99.5598 417.263 103.632C418.621 107.637 420.318 109.639 422.354 109.639C424.39 109.639 426.087 107.637 427.444 103.632C428.802 99.5598 429.481 92.9761 429.481 83.8811C429.481 74.786 428.802 68.2023 427.444 64.1299C426.087 60.0575 424.39 58.0213 422.354 58.0213ZM493.028 55.9851C496.15 55.9851 498.593 56.3923 500.358 57.2068C502.191 57.9534 503.582 58.9036 504.532 60.0575C505.55 61.2792 506.297 62.9082 506.772 64.9444C507.247 66.9806 507.485 69.7294 507.485 73.191V100.782C507.485 103.632 507.824 105.567 508.503 106.585C509.182 107.603 510.403 108.112 512.168 108.112V110.25C510.878 110.182 508.944 110.114 506.365 110.046C503.854 109.911 501.376 109.843 498.933 109.843C496.286 109.843 493.706 109.911 491.195 110.046C488.684 110.114 486.783 110.182 485.494 110.25V108.112C486.851 108.112 487.801 107.603 488.344 106.585C488.887 105.567 489.159 103.632 489.159 100.782V67.6932C489.159 66.2679 489.023 65.0801 488.752 64.1299C488.48 63.1796 488.039 62.467 487.428 61.9919C486.885 61.5167 486.139 61.2792 485.188 61.2792C483.967 61.2792 482.779 61.5846 481.625 62.1955C480.539 62.8063 479.623 63.6887 478.876 64.8425C478.197 65.9285 477.858 67.1842 477.858 68.6095V100.782C477.858 103.632 478.129 105.567 478.672 106.585C479.215 107.603 480.166 108.112 481.523 108.112V110.25C480.369 110.182 478.605 110.114 476.229 110.046C473.921 109.911 471.546 109.843 469.102 109.843C466.252 109.843 463.367 109.911 460.448 110.046C457.53 110.114 455.324 110.182 453.831 110.25V108.112C455.935 108.112 457.394 107.603 458.209 106.585C459.091 105.567 459.532 103.632 459.532 100.782V68.5077C459.532 65.4534 459.125 63.2136 458.31 61.7882C457.496 60.295 456.003 59.5484 453.831 59.5484V57.4104C456.003 57.614 458.107 57.7158 460.143 57.7158C463.537 57.7158 466.693 57.614 469.611 57.4104C472.598 57.1389 475.347 56.7656 477.858 56.2905V63.6208C479.419 60.9059 481.489 58.9715 484.068 57.8176C486.648 56.5959 489.634 55.9851 493.028 55.9851ZM523.673 55.9851C526.795 55.9851 529.238 56.3923 531.003 57.2068C532.835 57.9534 534.227 58.9036 535.177 60.0575C536.195 61.2792 536.942 62.9082 537.417 64.9444C537.892 66.9806 538.13 69.7294 538.13 73.191V100.782C538.13 103.632 538.537 105.567 539.351 106.585C540.234 107.603 541.727 108.112 543.831 108.112V110.25C542.474 110.182 540.403 110.114 537.621 110.046C534.906 109.911 532.225 109.843 529.578 109.843C526.93 109.843 524.351 109.911 521.84 110.046C519.329 110.114 517.428 110.182 516.139 110.25V108.112C517.496 108.112 518.446 107.603 518.989 106.585C519.532 105.567 519.804 103.632 519.804 100.782V67.6932C519.804 66.2679 519.634 65.0801 519.295 64.1299C518.955 63.1796 518.412 62.467 517.666 61.9919C516.987 61.5167 516.037 61.2792 514.815 61.2792C513.593 61.2792 512.406 61.6525 511.252 62.3991C510.166 63.1457 509.249 64.1299 508.503 65.3516C507.824 66.5054 507.417 67.795 507.281 69.2204L506.568 65.148C508.401 61.5507 510.777 59.1412 513.695 57.9195C516.682 56.6299 520.007 55.9851 523.673 55.9851ZM574.274 55.9851C580.247 55.9851 584.93 57.7498 588.324 61.2792C591.785 64.7407 593.516 70.5779 593.516 78.7905H561.649L561.446 76.8562H578.652C578.72 73.5304 578.584 70.476 578.244 67.6932C577.905 64.8425 577.362 62.5688 576.615 60.8719C575.869 59.1751 574.851 58.3267 573.561 58.3267C571.729 58.3267 570.235 59.786 569.081 62.7045C567.928 65.5552 567.181 70.476 566.842 77.467L567.249 78.2815C567.181 78.9602 567.147 79.639 567.147 80.3177C567.147 80.9964 567.147 81.7091 567.147 82.4557C567.147 87.2069 567.724 90.906 568.878 93.553C570.1 96.2001 571.593 98.0327 573.358 99.0508C575.19 100.069 577.023 100.578 578.855 100.578C579.805 100.578 580.925 100.442 582.215 100.171C583.572 99.8992 585.032 99.2883 586.593 98.3381C588.154 97.32 589.681 95.7929 591.174 93.7566L592.905 94.3675C592.091 97.0824 590.767 99.7974 588.934 102.512C587.17 105.159 584.862 107.365 582.011 109.13C579.161 110.827 575.699 111.675 571.627 111.675C567.283 111.675 563.312 110.793 559.715 109.028C556.186 107.264 553.369 104.345 551.265 100.273C549.161 96.2001 548.109 90.7363 548.109 83.8811C548.109 77.3652 549.262 72.0711 551.57 67.9987C553.878 63.8584 557 60.838 560.937 58.9376C564.941 56.9692 569.387 55.9851 574.274 55.9851ZM637.515 55.9851C640.637 55.9851 643.08 56.3923 644.845 57.2068C646.678 57.9534 648.069 58.9036 649.019 60.0575C650.037 61.2792 650.784 62.9082 651.259 64.9444C651.734 66.9806 651.972 69.7294 651.972 73.191V100.782C651.972 103.632 652.379 105.567 653.193 106.585C654.076 107.603 655.569 108.112 657.673 108.112V110.25C656.316 110.182 654.245 110.114 651.463 110.046C648.748 109.911 646.067 109.843 643.42 109.843C640.569 109.843 637.786 109.911 635.071 110.046C632.356 110.114 630.32 110.182 628.963 110.25V108.112C630.727 108.112 631.949 107.603 632.628 106.585C633.307 105.567 633.646 103.632 633.646 100.782V67.6932C633.646 66.2679 633.476 65.0801 633.137 64.1299C632.797 63.1796 632.254 62.467 631.508 61.9919C630.829 61.5167 629.879 61.2792 628.657 61.2792C627.435 61.2792 626.248 61.5846 625.094 62.1955C624.008 62.8063 623.092 63.6887 622.345 64.8425C621.666 65.9285 621.327 67.1842 621.327 68.6095V100.782C621.327 103.632 621.666 105.567 622.345 106.585C623.092 107.603 624.313 108.112 626.01 108.112V110.25C624.721 110.182 622.82 110.114 620.309 110.046C617.797 109.911 615.218 109.843 612.571 109.843C609.72 109.843 606.836 109.911 603.917 110.046C600.999 110.114 598.793 110.182 597.3 110.25V108.112C599.404 108.112 600.863 107.603 601.677 106.585C602.56 105.567 603.001 103.632 603.001 100.782V68.5077C603.001 65.4534 602.594 63.2136 601.779 61.7882C600.965 60.295 599.472 59.5484 597.3 59.5484V57.4104C599.472 57.614 601.576 57.7158 603.612 57.7158C607.006 57.7158 610.162 57.614 613.08 57.4104C616.067 57.1389 618.816 56.7656 621.327 56.2905V63.6208C622.956 60.9059 625.128 58.9715 627.843 57.8176C630.626 56.5959 633.849 55.9851 637.515 55.9851Z" fill="#213321"/>
<path d="M81.5026 150.379V152.717C79.1647 153.185 77.3724 154.003 76.1255 155.172C74.9566 156.341 74.1773 158.172 73.7877 160.666C73.398 163.082 73.2032 166.511 73.2032 170.952V199.124C73.2032 203.955 72.8525 208.514 72.1512 212.8C71.5277 217.086 70.2809 220.788 68.4106 223.905C66.3844 227.256 63.3452 229.906 59.2929 231.854C55.3185 233.802 49.9804 234.776 43.2785 234.776C39.6938 234.776 35.9143 234.387 31.9399 233.607C27.9655 232.828 24.4198 231.347 21.3026 229.165C18.653 227.217 16.6269 224.84 15.2242 222.035C13.8214 219.229 12.8863 215.956 12.4187 212.216C11.9512 208.475 11.7174 204.228 11.7174 199.474V162.77C11.7174 159.887 11.5225 157.782 11.1329 156.458C10.7433 155.055 9.96399 154.12 8.79506 153.652C7.62612 153.107 5.83376 152.795 3.41797 152.717V150.379C5.6779 150.457 8.6392 150.535 12.3018 150.613C16.0424 150.691 19.9389 150.73 23.9912 150.73C28.0435 150.73 31.9399 150.691 35.6805 150.613C39.4211 150.535 42.4992 150.457 44.915 150.379V152.717C42.2655 152.795 40.2393 153.107 38.8366 153.652C37.5118 154.12 36.6156 155.055 36.148 156.458C35.6805 157.782 35.4467 159.887 35.4467 162.77V210.462C35.4467 214.281 35.7584 217.515 36.3818 220.165C37.0053 222.736 37.9014 224.801 39.0704 226.36C40.3172 227.918 41.8369 229.048 43.6292 229.75C45.4995 230.373 47.6425 230.685 50.0583 230.685C55.2796 230.685 59.3708 229.438 62.3321 226.944C65.2934 224.373 67.3975 220.827 68.6444 216.307C69.8912 211.709 70.5146 206.41 70.5146 200.41V173.29C70.5146 168.069 70.2809 164.095 69.8133 161.367C69.4236 158.562 68.4106 156.536 66.7741 155.289C65.1376 154.042 62.449 153.185 58.7084 152.717V150.379C60.267 150.457 62.2932 150.535 64.7869 150.613C67.2806 150.691 69.6185 150.73 71.8005 150.73C73.5928 150.73 75.3462 150.691 77.0607 150.613C78.853 150.535 80.3337 150.457 81.5026 150.379ZM129.406 170.836C132.991 170.836 135.796 171.303 137.822 172.238C139.926 173.096 141.524 174.187 142.615 175.511C143.784 176.914 144.641 178.784 145.187 181.122C145.732 183.46 146.005 186.616 146.005 190.591V222.269C146.005 225.542 146.473 227.763 147.408 228.931C148.421 230.1 150.135 230.685 152.551 230.685V233.14C150.992 233.062 148.616 232.984 145.42 232.906C142.303 232.75 139.225 232.672 136.186 232.672C132.913 232.672 129.718 232.75 126.601 232.906C123.484 232.984 121.146 233.062 119.587 233.14V230.685C121.613 230.685 123.016 230.1 123.795 228.931C124.575 227.763 124.964 225.542 124.964 222.269V184.278C124.964 182.642 124.769 181.278 124.38 180.187C123.99 179.096 123.367 178.278 122.509 177.732C121.73 177.187 120.639 176.914 119.236 176.914C117.834 176.914 116.47 177.265 115.145 177.966C113.898 178.667 112.846 179.68 111.989 181.005C111.21 182.252 110.82 183.694 110.82 185.33V222.269C110.82 225.542 111.21 227.763 111.989 228.931C112.846 230.1 114.249 230.685 116.197 230.685V233.14C114.717 233.062 112.535 232.984 109.651 232.906C106.768 232.75 103.806 232.672 100.767 232.672C97.4941 232.672 94.1822 232.75 90.8312 232.906C87.4803 232.984 84.9476 233.062 83.2332 233.14V230.685C85.649 230.685 87.3244 230.1 88.2596 228.931C89.2727 227.763 89.7792 225.542 89.7792 222.269V185.213C89.7792 181.707 89.3116 179.135 88.3765 177.498C87.4413 175.784 85.7269 174.927 83.2332 174.927V172.472C85.7269 172.706 88.1427 172.823 90.4806 172.823C94.377 172.823 98.0007 172.706 101.352 172.472C104.781 172.16 107.937 171.732 110.82 171.186V179.603C112.69 176.485 115.184 174.264 118.301 172.94C121.496 171.537 125.198 170.836 129.406 170.836ZM216.608 141.729V220.281C216.608 223.788 217.076 226.399 218.011 228.113C219.024 229.75 220.739 230.568 223.154 230.568V233.023C220.739 232.789 218.323 232.672 215.907 232.672C212.011 232.672 208.387 232.789 205.036 233.023C201.685 233.257 198.529 233.685 195.568 234.309V155.756C195.568 152.25 195.1 149.678 194.165 148.041C193.23 146.327 191.515 145.47 189.022 145.47V143.015C191.515 143.249 193.931 143.366 196.269 143.366C200.165 143.366 203.789 143.249 207.14 143.015C210.569 142.703 213.725 142.275 216.608 141.729ZM183.411 170.836C186.84 170.836 189.723 171.264 192.061 172.121C194.399 172.901 196.464 174.187 198.256 175.979L196.97 177.265C195.957 176.407 194.827 175.784 193.58 175.394C192.334 174.927 191.165 174.693 190.074 174.693C186.489 174.693 183.8 176.992 182.008 181.59C180.216 186.188 179.319 193.24 179.319 202.747C179.319 209.605 179.67 214.943 180.372 218.762C181.073 222.502 182.008 225.113 183.177 226.594C184.424 227.996 185.749 228.698 187.151 228.698C189.333 228.698 191.282 227.918 192.996 226.36C194.71 224.723 195.568 222.697 195.568 220.281V226.009C194.009 228.97 192.1 231.191 189.84 232.672C187.58 234.075 184.736 234.776 181.307 234.776C176.865 234.776 172.812 233.685 169.15 231.503C165.565 229.243 162.721 225.736 160.617 220.983C158.512 216.229 157.46 210.034 157.46 202.397C157.46 195.305 158.512 189.461 160.617 184.863C162.799 180.187 165.838 176.68 169.734 174.342C173.631 172.004 178.19 170.836 183.411 170.836ZM258.734 170.836C265.592 170.836 270.969 172.862 274.865 176.914C278.839 180.888 280.827 187.59 280.827 197.02H244.239L244.005 194.799H263.76C263.838 190.98 263.682 187.473 263.293 184.278C262.903 181.005 262.28 178.395 261.422 176.446C260.565 174.498 259.396 173.524 257.916 173.524C255.811 173.524 254.097 175.2 252.772 178.551C251.447 181.824 250.59 187.473 250.201 195.5L250.668 196.435C250.59 197.214 250.551 197.994 250.551 198.773C250.551 199.552 250.551 200.371 250.551 201.228C250.551 206.683 251.214 210.93 252.538 213.969C253.941 217.008 255.656 219.112 257.682 220.281C259.786 221.45 261.89 222.035 263.994 222.035C265.085 222.035 266.371 221.879 267.851 221.567C269.41 221.256 271.086 220.554 272.878 219.463C274.67 218.294 276.424 216.541 278.138 214.203L280.125 214.904C279.19 218.021 277.671 221.139 275.566 224.256C273.54 227.295 270.891 229.828 267.618 231.854C264.345 233.802 260.37 234.776 255.695 234.776C250.707 234.776 246.148 233.763 242.018 231.737C237.966 229.711 234.732 226.36 232.316 221.684C229.9 217.008 228.692 210.735 228.692 202.864C228.692 195.383 230.017 189.305 232.667 184.629C235.316 179.875 238.901 176.407 243.421 174.225C248.019 171.966 253.123 170.836 258.734 170.836ZM327.837 170.836C330.642 170.836 332.824 171.459 334.383 172.706C335.941 173.875 337.032 175.394 337.656 177.265C338.279 179.057 338.591 180.849 338.591 182.642C338.591 186.149 337.578 188.954 335.552 191.058C333.604 193.084 331.032 194.097 327.837 194.097C324.408 194.097 321.797 193.318 320.005 191.759C318.291 190.201 317.433 188.175 317.433 185.681C317.433 183.031 317.979 180.849 319.07 179.135C320.239 177.421 321.68 175.979 323.395 174.81C321.992 174.81 320.745 175.083 319.654 175.628C318.719 176.018 317.823 176.563 316.966 177.265C316.109 177.966 315.368 178.784 314.745 179.719C314.121 180.577 313.615 181.551 313.225 182.642C312.914 183.733 312.758 184.863 312.758 186.032V221.1C312.758 224.84 313.537 227.373 315.096 228.698C316.654 230.022 319.226 230.685 322.81 230.685V233.14C321.018 233.062 318.33 232.984 314.745 232.906C311.238 232.75 307.614 232.672 303.874 232.672C300.367 232.672 296.821 232.75 293.236 232.906C289.652 232.984 286.963 233.062 285.171 233.14V230.685C287.587 230.685 289.262 230.1 290.197 228.931C291.21 227.763 291.717 225.542 291.717 222.269V185.213C291.717 181.707 291.249 179.135 290.314 177.498C289.379 175.784 287.665 174.927 285.171 174.927V172.472C287.665 172.706 290.08 172.823 292.418 172.823C296.315 172.823 299.938 172.706 303.289 172.472C306.718 172.16 309.874 171.732 312.758 171.186V179.603C313.771 177.576 315.018 175.94 316.498 174.693C317.979 173.368 319.654 172.394 321.525 171.771C323.473 171.147 325.577 170.836 327.837 170.836ZM365.996 170.836C369.425 170.836 372.425 171.225 374.997 172.005C377.646 172.706 379.556 173.368 380.725 173.992C383.452 175.628 385.128 174.615 385.751 170.952H388.089C387.933 173.212 387.816 175.979 387.738 179.252C387.66 182.447 387.621 186.694 387.621 191.993H385.283C384.972 189.11 384.27 186.265 383.179 183.46C382.166 180.655 380.647 178.317 378.621 176.446C376.672 174.576 374.101 173.641 370.906 173.641C368.957 173.641 367.321 174.225 365.996 175.394C364.671 176.563 364.009 178.161 364.009 180.187C364.009 182.525 364.71 184.629 366.113 186.499C367.516 188.292 369.308 190.045 371.49 191.759C373.672 193.396 375.854 195.149 378.036 197.02C380.452 198.968 382.595 200.877 384.465 202.747C386.336 204.618 387.816 206.683 388.907 208.943C390.076 211.125 390.661 213.735 390.661 216.775C390.661 220.281 389.57 223.399 387.388 226.126C385.283 228.854 382.439 230.997 378.854 232.555C375.348 234.036 371.412 234.776 367.048 234.776C364.321 234.776 361.944 234.464 359.918 233.841C357.892 233.296 356.255 232.633 355.008 231.854C353.761 231.23 352.67 230.763 351.735 230.451C350.878 230.061 350.021 229.867 349.163 229.867C348.384 229.867 347.722 230.295 347.176 231.152C346.631 231.932 346.202 232.867 345.89 233.958H343.553C343.708 231.464 343.825 228.425 343.903 224.84C343.981 221.256 344.02 216.502 344.02 210.579H346.358C346.826 214.709 347.722 218.372 349.047 221.567C350.449 224.762 352.203 227.295 354.307 229.165C356.489 230.958 358.983 231.854 361.788 231.854C363.035 231.854 364.165 231.62 365.178 231.152C366.191 230.685 367.009 229.984 367.633 229.048C368.256 228.113 368.568 226.905 368.568 225.425C368.568 221.996 367.516 219.112 365.412 216.775C363.385 214.437 360.814 211.865 357.697 209.06C355.359 206.878 353.138 204.774 351.034 202.747C349.008 200.643 347.332 198.383 346.007 195.968C344.683 193.474 344.02 190.707 344.02 187.668C344.02 184.161 345.033 181.161 347.059 178.667C349.163 176.174 351.891 174.264 355.242 172.94C358.593 171.537 362.178 170.836 365.996 170.836ZM423.587 153.535V172.472H435.043V174.81H423.587V223.321C423.587 224.801 423.86 225.892 424.405 226.594C424.951 227.217 425.847 227.529 427.094 227.529C427.951 227.529 428.964 227.295 430.133 226.827C431.302 226.282 432.393 225.386 433.406 224.139L435.159 225.542C433.523 228.347 431.341 230.607 428.613 232.321C425.964 233.958 422.613 234.776 418.561 234.776C415.989 234.776 413.651 234.425 411.547 233.724C409.521 233.101 407.845 232.127 406.521 230.802C404.806 229.087 403.715 226.983 403.248 224.49C402.78 221.918 402.546 218.606 402.546 214.554V174.81H393.662V172.472H402.546V158.679C406.676 158.679 410.417 158.289 413.768 157.51C417.197 156.653 420.47 155.328 423.587 153.535ZM453.232 233.958C449.57 233.958 446.569 233.257 444.231 231.854C441.894 230.451 440.179 228.62 439.088 226.36C438.075 224.1 437.569 221.723 437.569 219.229C437.569 215.956 438.309 213.307 439.79 211.281C441.27 209.177 443.179 207.501 445.517 206.254C447.933 204.929 450.466 203.838 453.115 202.981C455.765 202.124 458.259 201.306 460.597 200.526C463.012 199.669 464.961 198.695 466.441 197.604C467.922 196.435 468.662 194.955 468.662 193.162V182.759C468.662 181.512 468.428 180.148 467.961 178.667C467.571 177.187 466.792 175.901 465.623 174.81C464.454 173.719 462.701 173.173 460.363 173.173C459.116 173.173 457.908 173.368 456.739 173.758C455.648 174.07 454.674 174.537 453.817 175.161C456.544 176.174 458.531 177.615 459.778 179.486C461.025 181.278 461.649 183.265 461.649 185.447C461.649 188.564 460.558 191.019 458.376 192.811C456.194 194.604 453.622 195.5 450.661 195.5C447.543 195.5 445.128 194.526 443.413 192.578C441.699 190.629 440.842 188.214 440.842 185.33C440.842 182.915 441.426 180.888 442.595 179.252C443.842 177.537 445.673 175.979 448.089 174.576C450.427 173.251 453.232 172.316 456.505 171.771C459.778 171.147 463.207 170.836 466.792 170.836C470.61 170.836 474.156 171.225 477.429 172.005C480.702 172.706 483.508 174.264 485.845 176.68C487.482 178.395 488.534 180.538 489.002 183.109C489.469 185.681 489.703 188.993 489.703 193.045V224.373C489.703 226.321 489.82 227.646 490.054 228.347C490.365 229.048 490.872 229.399 491.573 229.399C492.197 229.399 492.781 229.204 493.327 228.815C493.95 228.425 494.534 228.035 495.08 227.646L496.249 229.633C494.534 231.113 492.391 232.205 489.82 232.906C487.326 233.607 484.677 233.958 481.871 233.958C478.52 233.958 475.91 233.568 474.039 232.789C472.247 231.932 470.961 230.841 470.182 229.516C469.48 228.113 469.091 226.633 469.013 225.074C467.376 227.646 465.311 229.789 462.817 231.503C460.402 233.14 457.207 233.958 453.232 233.958ZM464.337 224.606C465.194 224.606 465.935 224.49 466.558 224.256C467.259 223.944 467.961 223.399 468.662 222.619V197.955C468.117 198.968 467.376 199.981 466.441 200.994C465.584 201.929 464.688 202.903 463.753 203.916C462.817 204.929 461.921 206.02 461.064 207.189C460.285 208.358 459.622 209.722 459.077 211.281C458.609 212.761 458.376 214.515 458.376 216.541C458.376 219.502 458.921 221.606 460.012 222.853C461.181 224.022 462.623 224.606 464.337 224.606ZM545.724 170.836C549.309 170.836 552.114 171.303 554.14 172.238C556.244 173.096 557.842 174.187 558.933 175.511C560.102 176.914 560.959 178.784 561.505 181.122C562.05 183.46 562.323 186.616 562.323 190.591V222.269C562.323 225.542 562.79 227.763 563.726 228.931C564.739 230.1 566.453 230.685 568.869 230.685V233.14C567.31 233.062 564.933 232.984 561.738 232.906C558.621 232.75 555.543 232.672 552.504 232.672C549.231 232.672 546.036 232.75 542.919 232.906C539.801 232.984 537.464 233.062 535.905 233.14V230.685C537.931 230.685 539.334 230.1 540.113 228.931C540.892 227.763 541.282 225.542 541.282 222.269V184.278C541.282 182.642 541.087 181.278 540.698 180.187C540.308 179.096 539.684 178.278 538.827 177.732C538.048 177.187 536.957 176.914 535.554 176.914C534.152 176.914 532.788 177.265 531.463 177.966C530.216 178.667 529.164 179.68 528.307 181.005C527.528 182.252 527.138 183.694 527.138 185.33V222.269C527.138 225.542 527.528 227.763 528.307 228.931C529.164 230.1 530.567 230.685 532.515 230.685V233.14C531.034 233.062 528.852 232.984 525.969 232.906C523.086 232.75 520.124 232.672 517.085 232.672C513.812 232.672 510.5 232.75 507.149 232.906C503.798 232.984 501.266 233.062 499.551 233.14V230.685C501.967 230.685 503.642 230.1 504.578 228.931C505.591 227.763 506.097 225.542 506.097 222.269V185.213C506.097 181.707 505.63 179.135 504.694 177.498C503.759 175.784 502.045 174.927 499.551 174.927V172.472C502.045 172.706 504.461 172.823 506.799 172.823C510.695 172.823 514.319 172.706 517.67 172.472C521.098 172.16 524.255 171.732 527.138 171.186V179.603C529.008 176.485 531.502 174.264 534.619 172.94C537.814 171.537 541.516 170.836 545.724 170.836ZM632.926 141.729V220.281C632.926 223.788 633.394 226.399 634.329 228.113C635.342 229.75 637.057 230.568 639.472 230.568V233.023C637.057 232.789 634.641 232.672 632.225 232.672C628.329 232.672 624.705 232.789 621.354 233.023C618.003 233.257 614.847 233.685 611.886 234.309V155.756C611.886 152.25 611.418 149.678 610.483 148.041C609.548 146.327 607.833 145.47 605.34 145.47V143.015C607.833 143.249 610.249 143.366 612.587 143.366C616.483 143.366 620.107 143.249 623.458 143.015C626.887 142.703 630.043 142.275 632.926 141.729ZM599.729 170.836C603.158 170.836 606.041 171.264 608.379 172.121C610.717 172.901 612.782 174.187 614.574 175.979L613.288 177.265C612.275 176.407 611.145 175.784 609.898 175.394C608.651 174.927 607.483 174.693 606.392 174.693C602.807 174.693 600.118 176.992 598.326 181.59C596.534 186.188 595.637 193.24 595.637 202.747C595.637 209.605 595.988 214.943 596.689 218.762C597.391 222.502 598.326 225.113 599.495 226.594C600.742 227.996 602.067 228.698 603.469 228.698C605.651 228.698 607.599 227.918 609.314 226.36C611.028 224.723 611.886 222.697 611.886 220.281V226.009C610.327 228.97 608.418 231.191 606.158 232.672C603.898 234.075 601.053 234.776 597.625 234.776C593.183 234.776 589.13 233.685 585.468 231.503C581.883 229.243 579.039 225.736 576.934 220.983C574.83 216.229 573.778 210.034 573.778 202.397C573.778 195.305 574.83 189.461 576.934 184.863C579.116 180.187 582.156 176.68 586.052 174.342C589.949 172.004 594.507 170.836 599.729 170.836Z" fill="#213321"/>
<path d="M1.89844 281.496H651.42" stroke="#FF8C18" stroke-width="21.5074"/>
</svg>
