<svg width="676" height="300" viewBox="0 0 676 300" fill="none" xmlns="http://www.w3.org/2000/svg">
<path d="M108.624 39.6859V41.7709C107.026 42.5353 105.358 44.0295 103.62 46.2535C101.883 48.4774 100.319 51.848 98.9294 56.3654L81.4159 113.492C80.582 113.423 79.6785 113.388 78.7055 113.388C77.8021 113.318 76.8638 113.284 75.8909 113.284C74.9874 113.284 74.0492 113.318 73.0762 113.388C72.1727 113.388 71.304 113.423 70.47 113.492L48.5782 46.6705C48.0223 44.8635 47.2925 43.6126 46.3891 42.9176C45.4856 42.2226 44.4431 41.8404 43.2617 41.7709V39.6859C45.6246 39.7554 48.4045 39.8249 51.6014 39.8944C54.7983 39.9639 58.0299 39.9987 61.2963 39.9987C64.5627 39.9987 67.6206 39.9639 70.47 39.8944C73.3889 39.8249 75.7171 39.7554 77.4546 39.6859V41.7709C75.3001 41.8404 73.6322 42.1184 72.4507 42.6048C71.2693 43.0218 70.5743 43.8558 70.3658 45.1068C70.2268 46.2882 70.5743 48.0952 71.4083 50.5276L85.6901 93.8942L82.6669 100.253L93.1958 66.5816C95.1418 60.3963 96.08 55.5314 96.0105 51.987C95.941 48.3732 95.107 45.8017 93.5086 44.2728C91.9101 42.6743 89.7209 41.8404 86.941 41.7709V39.6859C89.5819 39.7554 91.9101 39.8249 93.9255 39.8944C96.0105 39.9639 98.2344 39.9987 100.597 39.9987C101.987 39.9987 103.412 39.9639 104.871 39.8944C106.331 39.8249 107.582 39.7554 108.624 39.6859ZM33.254 39.6859V41.7709C32.0725 41.9794 31.2733 42.6048 30.8563 43.6473C30.5088 44.6203 30.4046 45.767 30.5436 47.0874C30.7521 48.3384 31.03 49.4851 31.3775 50.5276L47.1188 94.8324L44.1999 99.315L56.7095 65.4349L58.1689 68.458L42.2192 113.492C41.3852 113.423 40.4817 113.388 39.5088 113.388C38.6053 113.318 37.6671 113.284 36.6941 113.284C35.7906 113.284 34.8524 113.318 33.8795 113.388C32.976 113.388 32.1073 113.423 31.2733 113.492L7.08805 48.4427C6.18458 46.0102 5.17686 44.3075 4.0649 43.3346C2.95294 42.3616 1.91047 41.8404 0.9375 41.7709V39.6859C3.43942 39.7554 6.35833 39.8249 9.69422 39.8944C13.0996 39.9639 16.3313 39.9987 19.3892 39.9987C22.4471 39.9987 25.1575 39.9639 27.5204 39.8944C29.8833 39.8249 31.7945 39.7554 33.254 39.6859ZM131.088 31.9717V65.7476C132.756 62.9677 134.98 60.987 137.76 59.8055C140.61 58.5546 143.911 57.9291 147.664 57.9291C150.861 57.9291 153.363 58.3461 155.169 59.1801C157.046 59.9445 158.471 60.9175 159.444 62.099C160.486 63.3499 161.251 65.0179 161.737 67.1028C162.223 69.1877 162.467 72.0024 162.467 75.5468V103.797C162.467 106.716 162.884 108.697 163.718 109.739C164.621 110.782 166.15 111.303 168.305 111.303V113.492C166.915 113.423 164.795 113.353 161.945 113.284C159.166 113.145 156.42 113.075 153.71 113.075C150.791 113.075 147.942 113.145 145.162 113.284C142.382 113.353 140.297 113.423 138.907 113.492V111.303C140.714 111.303 141.965 110.782 142.66 109.739C143.355 108.697 143.702 106.716 143.702 103.797V69.9175C143.702 68.458 143.529 67.2418 143.181 66.2688C142.834 65.2959 142.278 64.5661 141.513 64.0797C140.818 63.5932 139.845 63.3499 138.594 63.3499C137.343 63.3499 136.127 63.6627 134.946 64.2882C133.834 64.9136 132.895 65.8171 132.131 66.9986C131.436 68.1105 131.088 69.3962 131.088 70.8557V103.797C131.088 106.716 131.436 108.697 132.131 109.739C132.895 110.782 134.146 111.303 135.884 111.303V113.492C134.563 113.423 132.617 113.353 130.046 113.284C127.475 113.145 124.834 113.075 122.123 113.075C119.204 113.075 116.251 113.145 113.262 113.284C110.274 113.353 108.015 113.423 106.486 113.492V111.303C108.641 111.303 110.135 110.782 110.969 109.739C111.872 108.697 112.324 106.716 112.324 103.797V44.4813C112.324 41.3539 111.907 39.0605 111.073 37.601C110.239 36.072 108.71 35.3076 106.486 35.3076V33.1184C108.71 33.3269 110.865 33.4311 112.95 33.4311C116.424 33.4311 119.656 33.3269 122.644 33.1184C125.702 32.8404 128.517 32.4582 131.088 31.9717ZM199.482 57.9291C205.597 57.9291 210.393 59.736 213.868 63.3499C217.412 66.8943 219.184 72.8711 219.184 81.2804H186.555L186.347 79.2997H203.964C204.034 75.8943 203.895 72.7669 203.547 69.9175C203.2 66.9986 202.644 64.6704 201.879 62.9329C201.115 61.1955 200.072 60.3268 198.752 60.3268C196.875 60.3268 195.347 61.821 194.165 64.8094C192.984 67.7283 192.219 72.7669 191.872 79.9252L192.289 80.7591C192.219 81.4541 192.184 82.1491 192.184 82.8441C192.184 83.539 192.184 84.2688 192.184 85.0332C192.184 89.8981 192.775 93.6857 193.957 96.3961C195.208 99.1065 196.736 100.983 198.543 102.025C200.42 103.068 202.296 103.589 204.173 103.589C205.146 103.589 206.292 103.45 207.613 103.172C209.003 102.894 210.497 102.268 212.095 101.295C213.694 100.253 215.258 98.6896 216.787 96.6046L218.559 97.2301C217.725 100.01 216.37 102.79 214.493 105.569C212.686 108.28 210.323 110.539 207.404 112.345C204.485 114.083 200.941 114.952 196.771 114.952C192.323 114.952 188.258 114.048 184.574 112.241C180.96 110.434 178.076 107.446 175.922 103.276C173.767 99.1065 172.69 93.512 172.69 86.4927C172.69 79.8209 173.872 74.4001 176.235 70.2302C178.598 65.9908 181.794 62.8982 185.825 60.9523C189.926 58.9368 194.478 57.9291 199.482 57.9291ZM264.236 57.9291C267.433 57.9291 269.935 58.3461 271.742 59.1801C273.618 59.9445 275.043 60.9175 276.016 62.099C277.058 63.3499 277.823 65.0179 278.309 67.1028C278.796 69.1877 279.039 72.0024 279.039 75.5468V103.797C279.039 106.716 279.456 108.697 280.29 109.739C281.193 110.782 282.722 111.303 284.877 111.303V113.492C283.487 113.423 281.367 113.353 278.518 113.284C275.738 113.145 272.993 113.075 270.282 113.075C267.363 113.075 264.514 113.145 261.734 113.284C258.954 113.353 256.869 113.423 255.479 113.492V111.303C257.286 111.303 258.537 110.782 259.232 109.739C259.927 108.697 260.275 106.716 260.275 103.797V69.9175C260.275 68.458 260.101 67.2418 259.753 66.2688C259.406 65.2959 258.85 64.5661 258.085 64.0797C257.39 63.5932 256.417 63.3499 255.166 63.3499C253.915 63.3499 252.699 63.6627 251.518 64.2882C250.406 64.9136 249.468 65.8171 248.703 66.9986C248.008 68.1105 247.661 69.3962 247.661 70.8557V103.797C247.661 106.716 248.008 108.697 248.703 109.739C249.468 110.782 250.719 111.303 252.456 111.303V113.492C251.136 113.423 249.19 113.353 246.618 113.284C244.047 113.145 241.406 113.075 238.695 113.075C235.777 113.075 232.823 113.145 229.835 113.284C226.846 113.353 224.587 113.423 223.058 113.492V111.303C225.213 111.303 226.707 110.782 227.541 109.739C228.445 108.697 228.896 106.716 228.896 103.797V70.7514C228.896 67.624 228.479 65.3306 227.645 63.8712C226.811 62.3422 225.282 61.5777 223.058 61.5777V59.3886C225.282 59.597 227.437 59.7013 229.522 59.7013C232.997 59.7013 236.228 59.597 239.217 59.3886C242.275 59.1106 245.089 58.7283 247.661 58.2418V65.7476C249.329 62.9677 251.553 60.987 254.332 59.8055C257.182 58.5546 260.483 57.9291 264.236 57.9291ZM411.184 39.6859V41.7709C409.585 42.5353 407.917 44.0295 406.18 46.2535C404.443 48.4774 402.879 51.848 401.489 56.3654L383.975 113.492C383.141 113.423 382.238 113.388 381.265 113.388C380.362 113.318 379.423 113.284 378.45 113.284C377.547 113.284 376.609 113.318 375.636 113.388C374.732 113.388 373.864 113.423 373.03 113.492L351.138 46.6705C350.582 44.8635 349.852 43.6126 348.949 42.9176C348.045 42.2226 347.003 41.8404 345.821 41.7709V39.6859C348.184 39.7554 350.964 39.8249 354.161 39.8944C357.358 39.9639 360.589 39.9987 363.856 39.9987C367.122 39.9987 370.18 39.9639 373.03 39.8944C375.948 39.8249 378.277 39.7554 380.014 39.6859V41.7709C377.86 41.8404 376.192 42.1184 375.01 42.6048C373.829 43.0218 373.134 43.8558 372.925 45.1068C372.786 46.2882 373.134 48.0952 373.968 50.5276L388.25 93.8942L385.226 100.253L395.755 66.5816C397.701 60.3963 398.639 55.5314 398.57 51.987C398.5 48.3732 397.666 45.8017 396.068 44.2728C394.47 42.6743 392.28 41.8404 389.501 41.7709V39.6859C392.141 39.7554 394.47 39.8249 396.485 39.8944C398.57 39.9639 400.794 39.9987 403.157 39.9987C404.547 39.9987 405.971 39.9639 407.431 39.8944C408.89 39.8249 410.141 39.7554 411.184 39.6859ZM335.813 39.6859V41.7709C334.632 41.9794 333.833 42.6048 333.416 43.6473C333.068 44.6203 332.964 45.767 333.103 47.0874C333.312 48.3384 333.59 49.4851 333.937 50.5276L349.678 94.8324L346.759 99.315L359.269 65.4349L360.728 68.458L344.779 113.492C343.945 113.423 343.041 113.388 342.068 113.388C341.165 113.318 340.227 113.284 339.254 113.284C338.35 113.284 337.412 113.318 336.439 113.388C335.535 113.388 334.667 113.423 333.833 113.492L309.648 48.4427C308.744 46.0102 307.736 44.3075 306.624 43.3346C305.512 42.3616 304.47 41.8404 303.497 41.7709V39.6859C305.999 39.7554 308.918 39.8249 312.254 39.8944C315.659 39.9639 318.891 39.9987 321.949 39.9987C325.007 39.9987 327.717 39.9639 330.08 39.8944C332.443 39.8249 334.354 39.7554 335.813 39.6859ZM433.019 57.9291C438.439 57.9291 443.131 58.8673 447.092 60.7438C451.123 62.5507 454.25 65.5391 456.474 69.709C458.698 73.8788 459.81 79.4734 459.81 86.4927C459.81 93.512 458.698 99.1065 456.474 103.276C454.25 107.446 451.123 110.434 447.092 112.241C443.131 114.048 438.439 114.952 433.019 114.952C427.667 114.952 422.976 114.048 418.945 112.241C414.914 110.434 411.787 107.446 409.563 103.276C407.339 99.1065 406.227 93.512 406.227 86.4927C406.227 79.4734 407.339 73.8788 409.563 69.709C411.787 65.5391 414.914 62.5507 418.945 60.7438C422.976 58.8673 427.667 57.9291 433.019 57.9291ZM433.019 60.014C430.934 60.014 429.196 62.099 427.806 66.2688C426.416 70.4387 425.721 77.18 425.721 86.4927C425.721 95.8054 426.416 102.546 427.806 106.716C429.196 110.817 430.934 112.867 433.019 112.867C435.104 112.867 436.841 110.817 438.231 106.716C439.621 102.546 440.316 95.8054 440.316 86.4927C440.316 77.18 439.621 70.4387 438.231 66.2688C436.841 62.099 435.104 60.014 433.019 60.014ZM505.384 57.9291C508.581 57.9291 511.083 58.3461 512.889 59.1801C514.766 59.9445 516.191 60.9175 517.164 62.099C518.206 63.3499 518.971 65.0179 519.457 67.1028C519.944 69.1877 520.187 72.0024 520.187 75.5468V103.797C520.187 106.716 520.534 108.697 521.229 109.739C521.924 110.782 523.175 111.303 524.982 111.303V113.492C523.662 113.423 521.681 113.353 519.04 113.284C516.469 113.145 513.932 113.075 511.43 113.075C508.72 113.075 506.079 113.145 503.507 113.284C500.936 113.353 498.99 113.423 497.669 113.492V111.303C499.059 111.303 500.032 110.782 500.588 109.739C501.144 108.697 501.422 106.716 501.422 103.797V69.9175C501.422 68.458 501.283 67.2418 501.005 66.2688C500.727 65.2959 500.276 64.5661 499.65 64.0797C499.094 63.5932 498.33 63.3499 497.357 63.3499C496.106 63.3499 494.89 63.6627 493.708 64.2882C492.596 64.9136 491.658 65.8171 490.893 66.9986C490.198 68.1105 489.851 69.3962 489.851 70.8557V103.797C489.851 106.716 490.129 108.697 490.685 109.739C491.241 110.782 492.214 111.303 493.604 111.303V113.492C492.422 113.423 490.615 113.353 488.183 113.284C485.82 113.145 483.388 113.075 480.886 113.075C477.967 113.075 475.013 113.145 472.025 113.284C469.036 113.353 466.778 113.423 465.249 113.492V111.303C467.403 111.303 468.897 110.782 469.731 109.739C470.635 108.697 471.087 106.716 471.087 103.797V70.7514C471.087 67.624 470.67 65.3306 469.836 63.8712C469.002 62.3422 467.473 61.5777 465.249 61.5777V59.3886C467.473 59.597 469.627 59.7013 471.712 59.7013C475.187 59.7013 478.419 59.597 481.407 59.3886C484.465 59.1106 487.28 58.7283 489.851 58.2418V65.7476C491.449 62.9677 493.569 60.987 496.21 59.8055C498.851 58.5546 501.909 57.9291 505.384 57.9291ZM536.762 57.9291C539.959 57.9291 542.461 58.3461 544.268 59.1801C546.144 59.9445 547.569 60.9175 548.542 62.099C549.584 63.3499 550.349 65.0179 550.835 67.1028C551.322 69.1877 551.565 72.0024 551.565 75.5468V103.797C551.565 106.716 551.982 108.697 552.816 109.739C553.719 110.782 555.248 111.303 557.403 111.303V113.492C556.013 113.423 553.893 113.353 551.044 113.284C548.264 113.145 545.519 113.075 542.808 113.075C540.098 113.075 537.457 113.145 534.886 113.284C532.314 113.353 530.368 113.423 529.048 113.492V111.303C530.438 111.303 531.411 110.782 531.967 109.739C532.523 108.697 532.801 106.716 532.801 103.797V69.9175C532.801 68.458 532.627 67.2418 532.279 66.2688C531.932 65.2959 531.376 64.5661 530.611 64.0797C529.916 63.5932 528.943 63.3499 527.693 63.3499C526.442 63.3499 525.225 63.7322 524.044 64.4966C522.932 65.2611 521.994 66.2688 521.229 67.5198C520.534 68.7013 520.117 70.0217 519.978 71.4812L519.249 67.3113C521.125 63.6279 523.557 61.1608 526.546 59.9098C529.604 58.5893 533.009 57.9291 536.762 57.9291ZM588.574 57.9291C594.69 57.9291 599.485 59.736 602.96 63.3499C606.505 66.8943 608.277 72.8711 608.277 81.2804H575.648L575.439 79.2997H593.057C593.126 75.8943 592.987 72.7669 592.64 69.9175C592.292 66.9986 591.736 64.6704 590.972 62.9329C590.207 61.1955 589.165 60.3268 587.844 60.3268C585.968 60.3268 584.439 61.821 583.258 64.8094C582.076 67.7283 581.312 72.7669 580.964 79.9252L581.381 80.7591C581.312 81.4541 581.277 82.1491 581.277 82.8441C581.277 83.539 581.277 84.2688 581.277 85.0332C581.277 89.8981 581.868 93.6857 583.049 96.3961C584.3 99.1065 585.829 100.983 587.636 102.025C589.512 103.068 591.389 103.589 593.265 103.589C594.238 103.589 595.385 103.45 596.705 103.172C598.095 102.894 599.59 102.268 601.188 101.295C602.787 100.253 604.35 98.6896 605.879 96.6046L607.651 97.2301C606.817 100.01 605.462 102.79 603.586 105.569C601.779 108.28 599.416 110.539 596.497 112.345C593.578 114.083 590.034 114.952 585.864 114.952C581.416 114.952 577.35 114.048 573.667 112.241C570.053 110.434 567.169 107.446 565.014 103.276C562.86 99.1065 561.783 93.512 561.783 86.4927C561.783 79.8209 562.964 74.4001 565.327 70.2302C567.69 65.9908 570.887 62.8982 574.918 60.9523C579.018 58.9368 583.57 57.9291 588.574 57.9291ZM653.328 57.9291C656.525 57.9291 659.027 58.3461 660.834 59.1801C662.711 59.9445 664.135 60.9175 665.108 62.099C666.151 63.3499 666.915 65.0179 667.402 67.1028C667.888 69.1877 668.132 72.0024 668.132 75.5468V103.797C668.132 106.716 668.549 108.697 669.382 109.739C670.286 110.782 671.815 111.303 673.969 111.303V113.492C672.579 113.423 670.46 113.353 667.61 113.284C664.83 113.145 662.085 113.075 659.375 113.075C656.456 113.075 653.606 113.145 650.827 113.284C648.047 113.353 645.962 113.423 644.572 113.492V111.303C646.379 111.303 647.63 110.782 648.325 109.739C649.02 108.697 649.367 106.716 649.367 103.797V69.9175C649.367 68.458 649.193 67.2418 648.846 66.2688C648.498 65.2959 647.942 64.5661 647.178 64.0797C646.483 63.5932 645.51 63.3499 644.259 63.3499C643.008 63.3499 641.792 63.6627 640.61 64.2882C639.498 64.9136 638.56 65.8171 637.796 66.9986C637.101 68.1105 636.753 69.3962 636.753 70.8557V103.797C636.753 106.716 637.101 108.697 637.796 109.739C638.56 110.782 639.811 111.303 641.549 111.303V113.492C640.228 113.423 638.282 113.353 635.711 113.284C633.139 113.145 630.498 113.075 627.788 113.075C624.869 113.075 621.915 113.145 618.927 113.284C615.939 113.353 613.68 113.423 612.151 113.492V111.303C614.305 111.303 615.8 110.782 616.634 109.739C617.537 108.697 617.989 106.716 617.989 103.797V70.7514C617.989 67.624 617.572 65.3306 616.738 63.8712C615.904 62.3422 614.375 61.5777 612.151 61.5777V59.3886C614.375 59.597 616.529 59.7013 618.614 59.7013C622.089 59.7013 625.321 59.597 628.309 59.3886C631.367 59.1106 634.182 58.7283 636.753 58.2418V65.7476C638.421 62.9677 640.645 60.987 643.425 59.8055C646.274 58.5546 649.576 57.9291 653.328 57.9291Z" fill="white"/>
<path d="M84.008 153.92V156.314C81.6142 156.793 79.779 157.631 78.5023 158.827C77.3054 160.024 76.5074 161.9 76.1084 164.453C75.7095 166.927 75.51 170.437 75.51 174.986V203.831C75.51 208.778 75.1509 213.446 74.4328 217.835C73.7944 222.224 72.5177 226.014 70.6027 229.206C68.528 232.637 65.4161 235.35 61.2668 237.345C57.1973 239.339 51.7315 240.337 44.8692 240.337C41.1987 240.337 37.3287 239.938 33.2592 239.14C29.1897 238.342 25.5591 236.826 22.3673 234.592C19.6544 232.597 17.5797 230.163 16.1434 227.291C14.7071 224.418 13.7496 221.067 13.2709 217.237C12.7921 213.406 12.5527 209.058 12.5527 204.19V166.607C12.5527 163.655 12.3532 161.501 11.9543 160.144C11.5553 158.708 10.7574 157.75 9.56046 157.271C8.36355 156.713 6.5283 156.394 4.05469 156.314V153.92C6.36871 154 9.40087 154.08 13.1512 154.16C16.9813 154.239 20.971 154.279 25.1202 154.279C29.2695 154.279 33.2592 154.239 37.0893 154.16C40.9194 154.08 44.0713 154 46.5449 153.92V156.314C43.8319 156.394 41.7572 156.713 40.3209 157.271C38.9645 157.75 38.0468 158.708 37.5681 160.144C37.0893 161.501 36.8499 163.655 36.8499 166.607V215.441C36.8499 219.351 37.1691 222.662 37.8074 225.375C38.4458 228.009 39.3634 230.123 40.5603 231.719C41.837 233.315 43.393 234.472 45.2283 235.19C47.1433 235.828 49.3376 236.148 51.8112 236.148C57.1574 236.148 61.3466 234.871 64.3788 232.318C67.4109 229.684 69.5654 226.054 70.8421 221.426C72.1188 216.718 72.7571 211.292 72.7571 205.148V177.38C72.7571 172.033 72.5177 167.964 72.039 165.171C71.64 162.298 70.6027 160.224 68.927 158.947C67.2513 157.67 64.4985 156.793 60.6684 156.314V153.92C62.2642 154 64.3389 154.08 66.8923 154.16C69.4457 154.239 71.8395 154.279 74.0737 154.279C75.909 154.279 77.7043 154.239 79.4598 154.16C81.295 154.08 82.8111 154 84.008 153.92ZM133.058 174.866C136.729 174.866 139.601 175.345 141.676 176.302C143.83 177.18 145.466 178.297 146.583 179.654C147.78 181.09 148.658 183.005 149.216 185.399C149.775 187.793 150.054 191.024 150.054 195.094V227.53C150.054 230.881 150.533 233.155 151.49 234.352C152.528 235.549 154.283 236.148 156.757 236.148V238.661C155.161 238.581 152.727 238.502 149.456 238.422C146.264 238.262 143.112 238.182 140 238.182C136.649 238.182 133.377 238.262 130.186 238.422C126.994 238.502 124.6 238.581 123.004 238.661V236.148C125.079 236.148 126.515 235.549 127.313 234.352C128.111 233.155 128.51 230.881 128.51 227.53V188.63C128.51 186.955 128.31 185.558 127.911 184.441C127.512 183.324 126.874 182.486 125.996 181.928C125.198 181.369 124.081 181.09 122.645 181.09C121.209 181.09 119.812 181.449 118.456 182.167C117.179 182.885 116.102 183.923 115.224 185.279C114.426 186.556 114.027 188.032 114.027 189.708V227.53C114.027 230.881 114.426 233.155 115.224 234.352C116.102 235.549 117.538 236.148 119.533 236.148V238.661C118.017 238.581 115.783 238.502 112.83 238.422C109.878 238.262 106.846 238.182 103.734 238.182C100.383 238.182 96.991 238.262 93.5599 238.422C90.1288 238.502 87.5355 238.581 85.78 238.661V236.148C88.2536 236.148 89.9692 235.549 90.9267 234.352C91.964 233.155 92.4827 230.881 92.4827 227.53V189.588C92.4827 185.997 92.0039 183.364 91.0464 181.688C90.0889 179.933 88.3334 179.055 85.78 179.055V176.542C88.3334 176.781 90.807 176.901 93.2008 176.901C97.1905 176.901 100.901 176.781 104.332 176.542C107.843 176.223 111.075 175.784 114.027 175.225V183.843C115.942 180.651 118.496 178.377 121.688 177.02C124.959 175.584 128.749 174.866 133.058 174.866ZM222.347 145.063V225.495C222.347 229.086 222.826 231.759 223.784 233.514C224.821 235.19 226.576 236.028 229.05 236.028V238.541C226.576 238.302 224.103 238.182 221.629 238.182C217.64 238.182 213.929 238.302 210.498 238.541C207.067 238.781 203.835 239.22 200.803 239.858V159.426C200.803 155.835 200.324 153.202 199.367 151.526C198.409 149.771 196.654 148.893 194.1 148.893V146.38C196.654 146.619 199.127 146.739 201.521 146.739C205.511 146.739 209.221 146.619 212.652 146.38C216.163 146.06 219.395 145.622 222.347 145.063ZM188.355 174.866C191.866 174.866 194.818 175.305 197.212 176.183C199.606 176.981 201.721 178.297 203.556 180.132L202.239 181.449C201.202 180.571 200.045 179.933 198.768 179.534C197.492 179.055 196.295 178.816 195.178 178.816C191.507 178.816 188.754 181.17 186.919 185.878C185.084 190.585 184.166 197.807 184.166 207.542C184.166 214.563 184.525 220.029 185.243 223.939C185.961 227.769 186.919 230.442 188.116 231.958C189.393 233.395 190.749 234.113 192.185 234.113C194.42 234.113 196.414 233.315 198.17 231.719C199.925 230.043 200.803 227.969 200.803 225.495V231.36C199.207 234.392 197.252 236.666 194.938 238.182C192.624 239.619 189.712 240.337 186.201 240.337C181.653 240.337 177.503 239.22 173.753 236.985C170.082 234.671 167.17 231.081 165.016 226.213C162.861 221.346 161.784 215.002 161.784 207.182C161.784 199.921 162.861 193.937 165.016 189.229C167.25 184.441 170.362 180.851 174.351 178.457C178.341 176.063 183.009 174.866 188.355 174.866ZM265.481 174.866C272.503 174.866 278.008 176.941 281.998 181.09C286.068 185.159 288.102 192.022 288.102 201.677H250.639L250.4 199.403H270.628C270.707 195.493 270.548 191.902 270.149 188.63C269.75 185.279 269.111 182.606 268.234 180.611C267.356 178.616 266.159 177.619 264.643 177.619C262.489 177.619 260.733 179.334 259.377 182.766C258.02 186.117 257.142 191.902 256.743 200.121L257.222 201.078C257.142 201.876 257.103 202.674 257.103 203.472C257.103 204.27 257.103 205.108 257.103 205.986C257.103 211.571 257.781 215.92 259.137 219.032C260.574 222.144 262.329 224.298 264.404 225.495C266.558 226.692 268.713 227.291 270.867 227.291C271.984 227.291 273.301 227.131 274.817 226.812C276.413 226.493 278.128 225.774 279.963 224.657C281.799 223.46 283.594 221.665 285.35 219.271L287.384 219.989C286.427 223.181 284.871 226.373 282.716 229.565C280.642 232.677 277.929 235.27 274.577 237.345C271.226 239.339 267.157 240.337 262.369 240.337C257.262 240.337 252.594 239.299 248.365 237.225C244.216 235.15 240.904 231.719 238.431 226.931C235.957 222.144 234.72 215.72 234.72 207.661C234.72 200.001 236.077 193.777 238.79 188.99C241.503 184.122 245.173 180.571 249.801 178.337C254.509 176.023 259.736 174.866 265.481 174.866ZM336.238 174.866C339.11 174.866 341.344 175.504 342.94 176.781C344.536 177.978 345.653 179.534 346.292 181.449C346.93 183.284 347.249 185.12 347.249 186.955C347.249 190.545 346.212 193.418 344.137 195.572C342.142 197.647 339.509 198.684 336.238 198.684C332.727 198.684 330.054 197.887 328.218 196.291C326.463 194.695 325.585 192.62 325.585 190.067C325.585 187.354 326.144 185.12 327.261 183.364C328.458 181.609 329.934 180.132 331.689 178.936C330.253 178.936 328.976 179.215 327.859 179.773C326.902 180.172 325.984 180.731 325.106 181.449C324.229 182.167 323.471 183.005 322.832 183.963C322.194 184.84 321.675 185.838 321.276 186.955C320.957 188.072 320.798 189.229 320.798 190.426V226.333C320.798 230.163 321.596 232.756 323.191 234.113C324.787 235.469 327.42 236.148 331.091 236.148V238.661C329.256 238.581 326.503 238.502 322.832 238.422C319.242 238.262 315.531 238.182 311.701 238.182C308.11 238.182 304.48 238.262 300.809 238.422C297.139 238.502 294.386 238.581 292.551 238.661V236.148C295.024 236.148 296.74 235.549 297.697 234.352C298.735 233.155 299.253 230.881 299.253 227.53V189.588C299.253 185.997 298.775 183.364 297.817 181.688C296.859 179.933 295.104 179.055 292.551 179.055V176.542C295.104 176.781 297.578 176.901 299.971 176.901C303.961 176.901 307.672 176.781 311.103 176.542C314.614 176.223 317.845 175.784 320.798 175.225V183.843C321.835 181.768 323.112 180.093 324.628 178.816C326.144 177.459 327.859 176.462 329.774 175.824C331.769 175.185 333.924 174.866 336.238 174.866ZM375.31 174.866C378.821 174.866 381.893 175.265 384.526 176.063C387.239 176.781 389.194 177.459 390.391 178.098C393.184 179.773 394.899 178.736 395.538 174.986H397.932C397.772 177.3 397.652 180.132 397.573 183.484C397.493 186.755 397.453 191.104 397.453 196.53H395.059C394.74 193.578 394.022 190.665 392.905 187.793C391.867 184.92 390.311 182.526 388.237 180.611C386.242 178.696 383.609 177.739 380.337 177.739C378.342 177.739 376.667 178.337 375.31 179.534C373.954 180.731 373.275 182.367 373.275 184.441C373.275 186.835 373.994 188.99 375.43 190.905C376.866 192.74 378.701 194.535 380.936 196.291C383.17 197.966 385.404 199.762 387.638 201.677C390.112 203.672 392.306 205.627 394.221 207.542C396.136 209.457 397.652 211.571 398.769 213.885C399.966 216.119 400.565 218.792 400.565 221.904C400.565 225.495 399.448 228.687 397.213 231.48C395.059 234.272 392.147 236.467 388.476 238.063C384.885 239.579 380.856 240.337 376.387 240.337C373.595 240.337 371.161 240.018 369.086 239.379C367.012 238.821 365.336 238.142 364.059 237.345C362.782 236.706 361.665 236.227 360.708 235.908C359.83 235.509 358.952 235.31 358.075 235.31C357.277 235.31 356.598 235.749 356.04 236.626C355.481 237.424 355.042 238.382 354.723 239.499H352.33C352.489 236.946 352.609 233.834 352.689 230.163C352.768 226.493 352.808 221.625 352.808 215.561H355.202C355.681 219.79 356.598 223.54 357.955 226.812C359.391 230.083 361.187 232.677 363.341 234.592C365.575 236.427 368.129 237.345 371.001 237.345C372.278 237.345 373.435 237.105 374.472 236.626C375.51 236.148 376.347 235.429 376.986 234.472C377.624 233.514 377.943 232.278 377.943 230.762C377.943 227.251 376.866 224.298 374.712 221.904C372.637 219.511 370.004 216.877 366.812 214.005C364.418 211.771 362.144 209.616 359.99 207.542C357.915 205.387 356.2 203.073 354.843 200.6C353.487 198.046 352.808 195.213 352.808 192.101C352.808 188.511 353.846 185.439 355.92 182.885C358.075 180.332 360.867 178.377 364.299 177.02C367.73 175.584 371.4 174.866 375.31 174.866ZM434.279 157.152V176.542H446.009V178.936H434.279V228.607C434.279 230.123 434.559 231.24 435.117 231.958C435.676 232.597 436.593 232.916 437.87 232.916C438.748 232.916 439.785 232.677 440.982 232.198C442.179 231.639 443.296 230.722 444.333 229.445L446.129 230.881C444.453 233.754 442.219 236.068 439.426 237.823C436.713 239.499 433.282 240.337 429.133 240.337C426.499 240.337 424.106 239.978 421.951 239.26C419.876 238.621 418.161 237.624 416.804 236.267C415.049 234.512 413.932 232.357 413.453 229.804C412.974 227.171 412.735 223.78 412.735 219.63V178.936H403.638V176.542H412.735V162.418C416.964 162.418 420.794 162.019 424.225 161.221C427.736 160.344 431.088 158.987 434.279 157.152ZM464.634 239.499C460.884 239.499 457.812 238.781 455.418 237.345C453.024 235.908 451.268 234.033 450.151 231.719C449.114 229.405 448.595 226.971 448.595 224.418C448.595 221.067 449.353 218.354 450.87 216.279C452.386 214.125 454.341 212.409 456.734 211.132C459.208 209.776 461.801 208.659 464.514 207.781C467.227 206.903 469.781 206.065 472.174 205.267C474.648 204.39 476.643 203.392 478.159 202.275C479.675 201.078 480.433 199.562 480.433 197.727V187.074C480.433 185.798 480.194 184.401 479.715 182.885C479.316 181.369 478.518 180.053 477.321 178.936C476.124 177.818 474.329 177.26 471.935 177.26C470.658 177.26 469.422 177.459 468.225 177.858C467.108 178.177 466.11 178.656 465.232 179.295C468.025 180.332 470.06 181.808 471.337 183.723C472.613 185.558 473.252 187.593 473.252 189.827C473.252 193.019 472.135 195.533 469.9 197.368C467.666 199.203 465.033 200.121 462.001 200.121C458.809 200.121 456.335 199.123 454.58 197.128C452.824 195.134 451.947 192.66 451.947 189.708C451.947 187.234 452.545 185.159 453.742 183.484C455.019 181.728 456.894 180.132 459.368 178.696C461.761 177.34 464.634 176.382 467.985 175.824C471.337 175.185 474.848 174.866 478.518 174.866C482.428 174.866 486.059 175.265 489.41 176.063C492.761 176.781 495.634 178.377 498.028 180.851C499.703 182.606 500.781 184.8 501.259 187.434C501.738 190.067 501.977 193.458 501.977 197.607V229.684C501.977 231.679 502.097 233.036 502.336 233.754C502.656 234.472 503.174 234.831 503.892 234.831C504.531 234.831 505.129 234.632 505.688 234.233C506.326 233.834 506.925 233.435 507.483 233.036L508.68 235.07C506.925 236.586 504.73 237.704 502.097 238.422C499.544 239.14 496.831 239.499 493.958 239.499C490.527 239.499 487.854 239.1 485.939 238.302C484.104 237.424 482.787 236.307 481.989 234.951C481.271 233.514 480.872 231.998 480.792 230.402C479.117 233.036 477.002 235.23 474.449 236.985C471.975 238.661 468.703 239.499 464.634 239.499ZM476.005 229.924C476.882 229.924 477.64 229.804 478.279 229.565C478.997 229.245 479.715 228.687 480.433 227.889V202.634C479.875 203.672 479.117 204.709 478.159 205.746C477.281 206.704 476.364 207.701 475.406 208.738C474.449 209.776 473.531 210.893 472.653 212.09C471.855 213.287 471.177 214.683 470.618 216.279C470.14 217.795 469.9 219.59 469.9 221.665C469.9 224.697 470.459 226.852 471.576 228.128C472.773 229.325 474.249 229.924 476.005 229.924ZM559.339 174.866C563.01 174.866 565.882 175.345 567.957 176.302C570.111 177.18 571.747 178.297 572.864 179.654C574.061 181.09 574.939 183.005 575.497 185.399C576.056 187.793 576.335 191.024 576.335 195.094V227.53C576.335 230.881 576.814 233.155 577.772 234.352C578.809 235.549 580.564 236.148 583.038 236.148V238.661C581.442 238.581 579.008 238.502 575.737 238.422C572.545 238.262 569.393 238.182 566.281 238.182C562.93 238.182 559.658 238.262 556.467 238.422C553.275 238.502 550.881 238.581 549.285 238.661V236.148C551.36 236.148 552.796 235.549 553.594 234.352C554.392 233.155 554.791 230.881 554.791 227.53V188.63C554.791 186.955 554.591 185.558 554.192 184.441C553.793 183.324 553.155 182.486 552.277 181.928C551.479 181.369 550.362 181.09 548.926 181.09C547.49 181.09 546.093 181.449 544.737 182.167C543.46 182.885 542.383 183.923 541.505 185.279C540.707 186.556 540.308 188.032 540.308 189.708V227.53C540.308 230.881 540.707 233.155 541.505 234.352C542.383 235.549 543.819 236.148 545.814 236.148V238.661C544.298 238.581 542.064 238.502 539.111 238.422C536.159 238.262 533.127 238.182 530.015 238.182C526.664 238.182 523.272 238.262 519.841 238.422C516.41 238.502 513.817 238.581 512.061 238.661V236.148C514.535 236.148 516.251 235.549 517.208 234.352C518.245 233.155 518.764 230.881 518.764 227.53V189.588C518.764 185.997 518.285 183.364 517.328 181.688C516.37 179.933 514.615 179.055 512.061 179.055V176.542C514.615 176.781 517.088 176.901 519.482 176.901C523.472 176.901 527.182 176.781 530.613 176.542C534.124 176.223 537.356 175.784 540.308 175.225V183.843C542.223 180.651 544.777 178.377 547.969 177.02C551.24 175.584 555.03 174.866 559.339 174.866ZM648.628 145.063V225.495C648.628 229.086 649.107 231.759 650.065 233.514C651.102 235.19 652.857 236.028 655.331 236.028V238.541C652.857 238.302 650.384 238.182 647.91 238.182C643.921 238.182 640.21 238.302 636.779 238.541C633.348 238.781 630.116 239.22 627.084 239.858V159.426C627.084 155.835 626.605 153.202 625.648 151.526C624.69 149.771 622.935 148.893 620.381 148.893V146.38C622.935 146.619 625.408 146.739 627.802 146.739C631.792 146.739 635.502 146.619 638.933 146.38C642.444 146.06 645.676 145.622 648.628 145.063ZM614.636 174.866C618.147 174.866 621.099 175.305 623.493 176.183C625.887 176.981 628.002 178.297 629.837 180.132L628.52 181.449C627.483 180.571 626.326 179.933 625.049 179.534C623.773 179.055 622.576 178.816 621.459 178.816C617.788 178.816 615.035 181.17 613.2 185.878C611.365 190.585 610.447 197.807 610.447 207.542C610.447 214.563 610.806 220.029 611.524 223.939C612.242 227.769 613.2 230.442 614.397 231.958C615.674 233.395 617.03 234.113 618.466 234.113C620.701 234.113 622.695 233.315 624.451 231.719C626.206 230.043 627.084 227.969 627.084 225.495V231.36C625.488 234.392 623.533 236.666 621.219 238.182C618.905 239.619 615.993 240.337 612.482 240.337C607.934 240.337 603.784 239.22 600.034 236.985C596.363 234.671 593.451 231.081 591.297 226.213C589.142 221.346 588.065 215.002 588.065 207.182C588.065 199.921 589.142 193.937 591.297 189.229C593.531 184.441 596.643 180.851 600.632 178.457C604.622 176.063 609.29 174.866 614.636 174.866Z" fill="white"/>
<path d="M2.5 288.481H667.566" stroke="#FF8C18" stroke-width="22.0221"/>
</svg>
