<svg width="273" height="149" viewBox="0 0 273 149" fill="none" xmlns="http://www.w3.org/2000/svg">
<path d="M102.071 36.9946V38.9647C100.56 39.6871 98.9841 41.099 97.3424 43.2004C95.7007 45.3018 94.2231 48.4867 92.9098 52.7552L76.3612 106.735C75.5731 106.67 74.7194 106.637 73.8001 106.637C72.9464 106.571 72.0598 106.538 71.1405 106.538C70.2868 106.538 69.4002 106.571 68.4809 106.637C67.6272 106.637 66.8063 106.67 66.0183 106.735L45.3325 43.5944C44.8072 41.887 44.1177 40.7049 43.264 40.0483C42.4103 39.3916 41.4252 39.0304 40.3089 38.9647V36.9946C42.5416 37.0603 45.1684 37.126 48.1891 37.1916C51.2099 37.2573 54.2635 37.2902 57.35 37.2902C60.4364 37.2902 63.3258 37.2573 66.0183 37.1916C68.7764 37.126 70.9763 37.0603 72.618 36.9946V38.9647C70.5823 39.0304 69.0062 39.2931 67.8898 39.7527C66.7735 40.1468 66.1168 40.9348 65.9198 42.1168C65.7884 43.2332 66.1168 44.9406 66.9048 47.239L80.3998 88.2165L77.5432 94.2252L87.4921 62.4086C89.3308 56.564 90.2173 51.9672 90.1516 48.6181C90.086 45.2033 89.2979 42.7735 87.7876 41.3288C86.2772 39.8184 84.2086 39.0304 81.5818 38.9647V36.9946C84.0773 37.0603 86.2772 37.126 88.1816 37.1916C90.1516 37.2573 92.2531 37.2902 94.4858 37.2902C95.7992 37.2902 97.1454 37.2573 98.5245 37.1916C99.9035 37.126 101.086 37.0603 102.071 36.9946ZM30.8525 36.9946V38.9647C29.7361 39.1617 28.9809 39.7527 28.5869 40.7378C28.2586 41.6571 28.1601 42.7407 28.2914 43.9884C28.4884 45.1704 28.7511 46.254 29.0795 47.239L43.9535 89.103L41.1954 93.3387L53.0158 61.325L54.3949 64.1816L39.3238 106.735C38.5358 106.67 37.6821 106.637 36.7627 106.637C35.909 106.571 35.0225 106.538 34.1031 106.538C33.2494 106.538 32.3629 106.571 31.4435 106.637C30.5898 106.637 29.769 106.67 28.9809 106.735L6.12811 45.2689C5.27442 42.9705 4.32222 41.3616 3.27151 40.4423C2.22081 39.5229 1.23577 39.0304 0.316406 38.9647V36.9946C2.68049 37.0603 5.43859 37.126 8.5907 37.1916C11.8085 37.2573 14.8621 37.2902 17.7515 37.2902C20.641 37.2902 23.2021 37.2573 25.4348 37.1916C27.6676 37.126 29.4735 37.0603 30.8525 36.9946ZM201.536 36.9946V38.9647C200.026 39.6871 198.45 41.099 196.808 43.2004C195.166 45.3018 193.689 48.4867 192.375 52.7552L175.827 106.735C175.039 106.67 174.185 106.637 173.266 106.637C172.412 106.571 171.525 106.538 170.606 106.538C169.752 106.538 168.866 106.571 167.946 106.637C167.093 106.637 166.272 106.67 165.484 106.735L144.798 43.5944C144.273 41.887 143.583 40.7049 142.729 40.0483C141.876 39.3916 140.891 39.0304 139.774 38.9647V36.9946C142.007 37.0603 144.634 37.126 147.655 37.1916C150.675 37.2573 153.729 37.2902 156.815 37.2902C159.902 37.2902 162.791 37.2573 165.484 37.1916C168.242 37.126 170.442 37.0603 172.084 36.9946V38.9647C170.048 39.0304 168.472 39.2931 167.355 39.7527C166.239 40.1468 165.582 40.9348 165.385 42.1168C165.254 43.2332 165.582 44.9406 166.37 47.239L179.865 88.2165L177.009 94.2252L186.958 62.4086C188.796 56.564 189.683 51.9672 189.617 48.6181C189.551 45.2033 188.763 42.7735 187.253 41.3288C185.743 39.8184 183.674 39.0304 181.047 38.9647V36.9946C183.543 37.0603 185.743 37.126 187.647 37.1916C189.617 37.2573 191.719 37.2902 193.951 37.2902C195.265 37.2902 196.611 37.2573 197.99 37.1916C199.369 37.126 200.551 37.0603 201.536 36.9946ZM130.318 36.9946V38.9647C129.202 39.1617 128.446 39.7527 128.052 40.7378C127.724 41.6571 127.626 42.7407 127.757 43.9884C127.954 45.1704 128.217 46.254 128.545 47.239L143.419 89.103L140.661 93.3387L152.481 61.325L153.86 64.1816L138.789 106.735C138.001 106.67 137.148 106.637 136.228 106.637C135.375 106.571 134.488 106.538 133.569 106.538C132.715 106.538 131.828 106.571 130.909 106.637C130.055 106.637 129.234 106.67 128.446 106.735L105.594 45.2689C104.74 42.9705 103.788 41.3616 102.737 40.4423C101.686 39.5229 100.701 39.0304 99.7819 38.9647V36.9946C102.146 37.0603 104.904 37.126 108.056 37.1916C111.274 37.2573 114.328 37.2902 117.217 37.2902C120.106 37.2902 122.668 37.2573 124.9 37.1916C127.133 37.126 128.939 37.0603 130.318 36.9946ZM267.806 36.9946V38.9647C265.836 39.3587 264.325 40.0483 263.275 41.0333C262.29 42.0183 261.633 43.5615 261.305 45.663C260.976 47.6987 260.812 50.5881 260.812 54.3313V78.0706C260.812 82.1421 260.517 85.9837 259.926 89.5955C259.4 93.2073 258.35 96.3266 256.773 98.9534C255.066 101.777 252.505 104.01 249.09 105.652C245.741 107.294 241.243 108.114 235.595 108.114C232.574 108.114 229.389 107.786 226.04 107.129C222.691 106.473 219.703 105.225 217.077 103.386C214.844 101.745 213.136 99.7414 211.954 97.3773C210.772 95.0132 209.984 92.2551 209.59 89.103C209.196 85.9509 208.999 82.3719 208.999 78.3661V47.436C208.999 45.0063 208.835 43.2332 208.507 42.1168C208.178 40.9348 207.522 40.1468 206.537 39.7527C205.552 39.2931 204.041 39.0304 202.005 38.9647V36.9946C203.91 37.0603 206.405 37.126 209.492 37.1916C212.644 37.2573 215.927 37.2902 219.342 37.2902C222.757 37.2902 226.04 37.2573 229.192 37.1916C232.345 37.126 234.939 37.0603 236.974 36.9946V38.9647C234.742 39.0304 233.034 39.2931 231.852 39.7527C230.736 40.1468 229.981 40.9348 229.586 42.1168C229.192 43.2332 228.995 45.0063 228.995 47.436V87.6255C228.995 90.8432 229.258 93.5685 229.783 95.8013C230.309 97.9683 231.064 99.7086 232.049 101.022C233.1 102.336 234.38 103.288 235.891 103.879C237.467 104.404 239.273 104.667 241.308 104.667C245.708 104.667 249.156 103.616 251.651 101.515C254.147 99.3474 255.92 96.3594 256.97 92.5506C258.021 88.6762 258.547 84.2107 258.547 79.1542V56.3013C258.547 51.9015 258.35 48.5524 257.956 46.254C257.627 43.8899 256.773 42.1825 255.394 41.1318C254.015 40.0811 251.75 39.3587 248.598 38.9647V36.9946C249.911 37.0603 251.618 37.126 253.72 37.1916C255.821 37.2573 257.791 37.2902 259.63 37.2902C261.14 37.2902 262.618 37.2573 264.063 37.1916C265.573 37.126 266.821 37.0603 267.806 36.9946Z" fill="#213321"/>
<path d="M1.79297 137.978H272.308" stroke="#FF8C18" stroke-width="20.8088"/>
</svg>
