<svg width="16" height="12" viewBox="0 0 16 12" fill="none" xmlns="http://www.w3.org/2000/svg">
<rect width="16" height="12" fill="#F5F5F5"/>
<g id="High fidelity Designs">
<path d="M-2676 -2906C-2676 -2907.1 -2675.1 -2908 -2674 -2908H21556C21557.1 -2908 21558 -2907.1 21558 -2906V3744C21558 3745.1 21557.1 3746 21556 3746H-2674C-2675.1 3746 -2676 3745.1 -2676 3744V-2906Z" fill="white"/>
<g id="Support Page">
<g id="MacBook Air - 14">
<rect width="1280" height="985" transform="translate(-578 -481)" fill="#FAF8F6"/>
<g id="Suppot groups">
<g id="Frame 1000005860">
<g id="Frame 1000005855">
<rect width="567" height="245" transform="translate(-515 -198)" fill="#F7F3E7"/>
<g id="Frame 1000005971">
<g id="Frame 1000005880">
<g id="Frame 15">
<g id="&#240;&#159;&#166;&#134; icon &#34;arrow right 1&#34;">
<g id="Group">
<path id="Vector" d="M10.263 11.6947C10.1043 11.6947 9.9456 11.6363 9.82032 11.511C9.57812 11.2688 9.57812 10.8679 9.82032 10.6257L14.4471 5.9989L9.82032 1.3721C9.57812 1.1299 9.57812 0.729022 9.82032 0.486824C10.0625 0.244626 10.4634 0.244626 10.7056 0.486824L15.7751 5.55627C16.0173 5.79846 16.0173 6.19934 15.7751 6.44154L10.7056 11.511C10.5803 11.6363 10.4216 11.6947 10.263 11.6947Z" fill="#292D32"/>
<path id="Vector_2" d="M15.19 6.62525H1.13419C0.791769 6.62525 0.507812 6.34129 0.507812 5.99887C0.507812 5.65645 0.791769 5.3725 1.13419 5.3725H15.19C15.5324 5.3725 15.8164 5.65645 15.8164 5.99887C15.8164 6.34129 15.5324 6.62525 15.19 6.62525Z" fill="#292D32"/>
</g>
</g>
</g>
</g>
</g>
</g>
</g>
</g>
</g>
</g>
<path d="M-2674 -2907H21556V-2909H-2674V-2907ZM21557 -2906V3744H21559V-2906H21557ZM21556 3745H-2674V3747H21556V3745ZM-2675 3744V-2906H-2677V3744H-2675ZM-2674 3745C-2674.55 3745 -2675 3744.55 -2675 3744H-2677C-2677 3745.66 -2675.66 3747 -2674 3747V3745ZM21557 3744C21557 3744.55 21556.6 3745 21556 3745V3747C21557.7 3747 21559 3745.66 21559 3744H21557ZM21556 -2907C21556.6 -2907 21557 -2906.55 21557 -2906H21559C21559 -2907.66 21557.7 -2909 21556 -2909V-2907ZM-2674 -2909C-2675.66 -2909 -2677 -2907.66 -2677 -2906H-2675C-2675 -2906.55 -2674.55 -2907 -2674 -2907V-2909Z" fill="black" fill-opacity="0.1"/>
</g>
</svg>
